# xmcd
#
# Track frame offsets:
#	150
#	13459
#	26406
#	40494
#	49784
#	61322
#	70851
#	83171
#	97419
#	111463
#	123247
#	140263
#	153584
#	162808
#	177652
#	187105
#	198160
#
# Disc length: 2815 seconds
#
# Revision: 5
# Processed by: cddbd v1.5.2PL0 Copyright (c) Steve Scherf et al.
# Submitted via: EZCDAudioConverter 2.1.7.1
#
DISCID=f80afd11
DTITLE=V/A - Trojan Rare Groove 1/3
DYEAR=1999
DGENRE=
TTITLE0=Pioneers - Some Having A Bawl
TTITLE1=Crystallites - Slippery
TTITLE2=Stranger Cole - Help Wanted
TTITLE3=Rolando Alphonso - Lover Boy
TTITLE4=Sir Harry and Ansel Collins - Bigger Boss
TTITLE5=Carlton Alphonso - Belittle Me
TTITLE6=Owen Gray - Reggae Dance
TTITLE7=Roy Shirley - I Like Your Smile
TTITLE8=Andy Capp - Poppy Show (Part 2)
TTITLE9=Rolando Alphonso - Music House
TTITLE10=Winston Williams - Sweet Like Candy
TTITLE11=Chuck Jnr. - Do It Madly
TTITLE12=Betty Sinclaire - Why Why Why
TTITLE13=Dice The Boss - Teahouse From Emperor Rosko
TTITLE14=Junior Soul - Jennifer
TTITLE15=Jay Boys - Tilly
TTITLE16=The Corporation - Sweet Musille
EXTD=
EXTT0=
EXTT1=
EXTT2=
EXTT3=
EXTT4=
EXTT5=
EXTT6=
EXTT7=
EXTT8=
EXTT9=
EXTT10=
EXTT11=
EXTT12=
EXTT13=
EXTT14=
EXTT15=
EXTT16=
PLAYORDER=
